<svg id="pepper" xmlns="http://www.w3.org/2000/svg" width="414.221" height="1754.054" viewBox="0 0 414.221 1754.054">
  <path id="Tracé_3" data-name="Tracé 3" d="M1397.859,1505.653s-55.692,84.106-60.238,178.441,17.524,336.045,47.624,356.984-78.5,25.637,48.445,596.233c34.148,153.49,31.031,252.682,8.274,315.55s210.28-193.84,207.663-541.956,26.173-392.614,61.508-455.431,99.174-367.869-84.045-485.652c-43.554-28-60.354-38.034-83.395-44.676-28.048-8.086-58.17-3.731-76.843,10.722C1437.549,1458.549,1397.859,1505.653,1397.859,1505.653Z" transform="translate(-1337.026 -1208.312)" fill="#d63d2f"/>
  <path id="Tracé_4" data-name="Tracé 4" d="M1389.66,1537.537s18.464-23.392,37.542-41.921c28.292-27.479,61.289-54.47,61.84-58.6.488-3.657-5.037-58.648,4.586-89.807-.869-28.153-7.694-35.218-9.626-47.657-4.127-26.58-22.453-56.819-26.118-56.819s36.2-7.79,56.819,65.525-3.208,53.153,5.04,94.392,93.476,98.974,93.476,98.974-58.193-21.536-69.649-9.622-28.409,64.608-26.576,81.562-30.242-70.107-48.571-69.649c-7.368.184-18.974-.228-34.546,6.509C1411.39,1520.153,1389.66,1537.537,1389.66,1537.537Z" transform="translate(-1326.954 -1242.493)" fill="#231f20"/>
</svg>
